<?xml version="1.0" encoding="UTF-8"?>
<svg id="Layer_1" data-name="Layer 1" xmlns="http://www.w3.org/2000/svg" viewBox="0 0 312.69 398.97">
  <defs>
    <style>
      .cls-1 {
        fill: #fff;
      }

      .cls-1, .cls-2, .cls-3 {
        stroke: #000;
        stroke-miterlimit: 10;
        stroke-width: 3px;
      }

      .cls-4 {
        font-family: CascadiaMono-Regular, 'Cascadia Mono';
        font-size: 24px;
        font-variation-settings: 'wght' 400;
      }

      .cls-2 {
        fill: #8c6239;
      }

      .cls-3 {
        fill: #cb75ae;
      }
    </style>
  </defs>
  <path class="cls-2" d="M288.69,67.38c-9.6-6.45-21.01-9.09-32.91-8.35-3.14-27.67-18.83-50.08-42.33-56.03-17.23-4.36-35.26,1-50.23,13.08-29.68-18.75-64.68-19.71-84.87-.13-11.32,10.98-15.99,26.47-14.5,43.04-18.27-2.32-35.55,2.06-47.57,13.72C-7.98,96.23-1.71,140.45,30.26,171.57c-.67,15.23,4.27,31.95,14.4,47.27v178.62h228.83v-172.76c4.52-7.6,8.16-16.11,10.64-25.32,2.3-8.55,3.41-17.04,3.48-25.23,1.86-2.2,3.66-4.5,5.38-6.89,25.87-36.18,23.95-80.89-4.29-99.87Z"/>
  <path class="cls-1" d="M277.8,71.68c-8.88-6.16-19.44-8.68-30.44-7.97-2.91-26.4-17.42-47.78-39.16-53.45-15.94-4.16-32.61.95-46.46,12.48-27.45-17.89-59.83-18.8-78.51-.12-10.48,10.48-14.79,25.26-13.41,41.06-16.9-2.21-32.88,1.96-44.01,13.09-22.44,22.44-16.64,64.63,12.94,94.32-.62,14.53,3.95,30.48,13.32,45.1v170.42h211.68v-164.83c4.18-7.25,7.55-15.37,9.84-24.16,2.13-8.16,3.16-16.26,3.22-24.08,1.72-2.1,3.39-4.29,4.98-6.58,23.93-34.52,22.15-77.18-3.97-95.29Z"/>
  <g>
    <ellipse class="cls-3" cx="65.76" cy="121.65" rx="27.44" ry="32.57" transform="translate(-42.86 36.06) rotate(-23.37)"/>
    <ellipse class="cls-3" cx="247.17" cy="123.59" rx="32.57" ry="27.44" transform="translate(35.68 301.46) rotate(-66.63)"/>
    <ellipse class="cls-3" cx="121.35" cy="73.06" rx="27.44" ry="32.57" transform="translate(-14.05 31.46) rotate(-13.97)"/>
    <ellipse class="cls-3" cx="192.06" cy="71.67" rx="32.57" ry="27.44" transform="translate(33.96 202.16) rotate(-60)"/>
    <path class="cls-3" d="M232.22,194.84c-.78-11.21-5.86-23.58-15.02-34.29-1.05-1.22-2.13-2.39-3.23-3.51-1.59-2.88-3.87-5.7-6.78-8.16-2.47-2.09-5.13-3.69-7.77-4.8-2.26-4.26-5.66-7.75-9.89-10.39-3.86-3.38-8.19-5.44-12.16-6-14.2-11.59-39.52-6.61-58.02,11.9-3.34,3.34-6.24,6.91-8.68,10.59-3.54,1.56-7.09,4.18-10.1,7.74-3.46,4.09-5.59,8.67-6.33,12.9-.38.49-.76.99-1.12,1.5-4.13,5.86-6.25,12.37-6.43,18.36-2.09,3.89-3.25,8.11-3.25,12.53,0,17.17,17.36,31.46,40.31,34.55,9.11,2.94,21.47,4.75,35.1,4.75,12.86,0,24.59-1.61,33.53-4.26,23.48-2.77,41.38-17.24,41.38-34.68,0-3.01-.54-5.94-1.54-8.73Z"/>
  </g>
  <text class="cls-4" transform="translate(66.69 296.06)"><tspan x="0" y="0">Second Chance</tspan><tspan x="0" y="28.8">Animal Rescue</tspan></text>
</svg>